<svg xmlns="http://www.w3.org/2000/svg" width="28" height="28" viewBox="0 0 28 28">
	<g class="chain">
		<path class="chain__top" d="M7.775 27.533c-1.288 0-2.497-.5-3.407-1.41l-2.49-2.493C.97 22.723.47 21.513.47 20.228c0-1.288.5-2.497 1.41-3.407l7.47-7.47c.91-.91 2.12-1.408 3.408-1.408 1.285 0 2.495.5 3.405 1.41l2.16 2.16-1.83 1.828-2.16-2.16c-.42-.42-.98-.65-1.576-.65-.595 0-1.155.23-1.575.65l-7.472 7.47c-.42.42-.653.98-.653 1.576 0 .597.233 1.155.653 1.575L6.2 24.29c.42.42.98.654 1.575.654.595-.002 1.154-.233 1.575-.653l2.417-2.416c.88.46 1.848.74 2.837.823l-3.425 3.425c-.91.91-2.12 1.41-3.406 1.41z"/>
		<path class="chain__bottom" d="M15.245 20.062c-1.286 0-2.496-.5-3.407-1.41L9.68 16.49l1.83-1.83 2.162 2.16c.422.422.982.653 1.577.653s1.152-.233 1.573-.653l7.47-7.47c.868-.867.868-2.28 0-3.15l-2.49-2.49c-.42-.42-.98-.65-1.577-.65-.595 0-1.154.23-1.575.65l-2.416 2.42c-.877-.46-1.844-.74-2.837-.824l3.425-3.425c.91-.908 2.12-1.408 3.407-1.408 1.284 0 2.494.5 3.402 1.41l2.49 2.49c.91.908 1.41 2.118 1.41 3.406 0 1.285-.5 2.495-1.41 3.405l-7.472 7.47c-.91.91-2.12 1.41-3.405 1.41z"/>
	</g>
</svg>
