<svg xmlns="http://www.w3.org/2000/svg" width="28" height="28" viewBox="0 0 30 30">
  <g>
    <path class="frame" d="M5.07 28.357c-1.388 0-2.594-.5-3.582-1.488S0 24.675 0 23.284V9.357c0-1.39.5-2.596 1.488-3.583.988-.987 2.193-1.488 3.583-1.488h11.786c.225 0 .414.075.563.224.145.146.223.34.223.562v1.07c0 .226-.075.415-.224.563-.15.15-.34.224-.564.224H5.07c-.673 0-1.234.232-1.714.712s-.714 1.04-.714 1.715v13.928c0 .674.233 1.234.714 1.715s1.042.714 1.715.714H19c.674 0 1.234-.233 1.715-.714s.714-1.04.714-1.715V17.93c0-.224.076-.418.224-.564.146-.147.336-.224.56-.224h1.073c.222 0 .416.078.563.226.146.144.223.338.223.56v5.357c0 1.392-.5 2.597-1.487 3.584-.988.986-2.194 1.487-3.584 1.487H5.072z"/>
    <path class="arrow" d="M29.682 2.46c-.212-.21-.464-.317-.753-.317h-8.572c-.29 0-.54.106-.753.318-.212.213-.318.464-.318.754s.106.54.318.753l2.946 2.946L11.636 17.83c-.112.11-.167.24-.167.384 0 .145.056.274.167.385l1.91 1.907c.11.112.24.167.384.167.144 0 .272-.056.384-.167L25.23 9.593l2.945 2.946c.212.21.463.317.753.317s.54-.106.753-.318c.214-.213.32-.464.32-.754V3.214c0-.29-.106-.54-.318-.753z"/>
  </g>
</svg>