<svg xmlns="http://www.w3.org/2000/svg" width="15.5" height="20" viewBox="3.496 -2.5 15.5 20">
	<path class="path path__triangle" d="M6.796 17.426c-.302-.14-.49-.442-.49-.787V-1.61c0-.345.187-.647.49-.79.116-.053.24-.08.365-.08.203 0 .4.072.556.203L18.71 6.848c.197.165.31.407.31.666 0 .257-.114.5-.31.666L7.712 17.302c-.156.132-.355.205-.56.205-.122 0-.235-.025-.357-.08zm1.78-3.1l7.754-6.4s.224-.19.224-.412-.26-.44-.26-.44L8.69.796S8.44.604 8.232.707s-.19.365-.19.365V14.02s-.03.337.14.44c.167.105.393-.135.393-.135z"/>
	<path class="path path__line" d="M4.366 17.5c.48 0 .87-.392.87-.87V-1.628c0-.48-.392-.87-.87-.87s-.87.39-.87.87V16.63c0 .478.39.87.87.87z"/>
</svg>
