<svg xmlns="http://www.w3.org/2000/svg" width="15.5" height="20" viewBox="3.496 -2.5 15.5 20">
	<path class="path path__triangle" d="M15.364 17.507c-.205 0-.404-.073-.56-.205L3.807 8.18c-.198-.168-.31-.41-.31-.667 0-.258.112-.5.308-.666L14.8-2.277c.156-.13.354-.203.555-.203.126 0 .25.027.365.08.304.143.49.444.49.79v18.25c0 .344-.188.646-.49.786-.122.056-.235.08-.356.08zm-1.03-3.046c.17-.103.14-.44.14-.44V1.072s.018-.26-.19-.364c-.21-.104-.457.09-.457.09L6.22 7.072s-.258.22-.258.44.224.412.224.412l7.754 6.4s.226.24.395.136z"/>
	<path class="path path__line" d="M18.15 17.5c-.48 0-.87-.392-.87-.87V-1.628c0-.48.392-.87.87-.87s.87.39.87.87V16.63c0 .478-.39.87-.87.87z"/>
</svg>